Coordinates
version=1
nRows=8
nColumns=63
inDegrees=yes

Units are S.I. units (second, meters, Newtons, ...)
If the header above contains a line with 'inDegrees', this indicates whether rotational values are in degrees (yes) or radians (no).

endheader
time	pelvis_tilt	pelvis_list	pelvis_rotation	pelvis_tx	pelvis_ty	pelvis_tz	hip_flexion_r	hip_adduction_r	hip_rotation_r	knee_angle_r	knee_angle_r_beta	ankle_angle_r	subtalar_angle_r	mtp_angle_r	hip_flexion_l	hip_adduction_l	hip_rotation_l	knee_angle_l	knee_angle_l_beta	ankle_angle_l	subtalar_angle_l	mtp_angle_l	L5_S1_Flex_Ext	L5_S1_Lat_Bending	L5_S1_axial_rotation	L4_L5_Flex_Ext	L4_L5_Lat_Bending	L4_L5_axial_rotation	L3_L4_Flex_Ext	L3_L4_Lat_Bending	L3_L4_axial_rotation	L2_L3_Flex_Ext	L2_L3_Lat_Bending	L2_L3_axial_rotation	L1_L2_Flex_Ext	L1_L2_Lat_Bending	L1_L2_axial_rotation	L1_T12_Flex_Ext	L1_T12_Lat_Bending	L1_T12_axial_rotation	Abs_r3	Abs_r2	Abs_r1	Abs_t1	Abs_t2	neck_flexion	neck_bending	neck_rotation	arm_flex_r	arm_add_r	arm_rot_r	elbow_flex_r	pro_sup_r	wrist_flex_r	wrist_dev_r	arm_flex_l	arm_add_l	arm_rot_l	elbow_flex_l	pro_sup_l	wrist_flex_l	wrist_dev_l
6.437500	8.196422	0.606729	159.077995	0.199112	0.865562	0.776323	9.340101	4.662019	-1.189763	13.286856	0.231899	21.817716	17.664830	0.000000	10.264005	-3.274182	-4.598004	10.929797	0.190761	27.094425	15.098693	0.000000	-0.034919	1.182041	0.925694	-0.064849	1.572114	0.983549	-0.057369	2.874014	0.983549	-0.039909	2.874014	0.809982	-0.032426	2.410418	0.752126	-0.019953	1.830981	0.694270	-0.249425	13.371482	5.148430	0.000000	0.000000	10.901339	4.566385	0.588570	-18.650458	-35.196203	-3.737119	69.698066	90.153766	0.475198	-3.160916	5.657034	3.468207	43.197960	27.306099	54.546022	14.303208	-7.740707
6.458333	8.264654	0.214877	159.302783	0.199802	0.863941	0.774501	9.587105	4.393782	-1.264681	13.407665	0.234008	21.834887	17.985029	0.000000	10.599834	-3.006939	-4.565392	11.004311	0.192061	26.689735	14.986174	0.000000	-0.040249	1.114074	0.799076	-0.074746	1.481719	0.849019	-0.066125	2.708760	0.849019	-0.046001	2.708760	0.699192	-0.037375	2.271820	0.649250	-0.022998	1.725701	0.599307	-0.287495	12.602630	4.444223	0.000000	0.000000	11.186372	4.869682	1.427549	-17.960485	-34.619978	-4.718338	68.822788	88.804283	0.148522	-5.529723	3.671806	2.094366	27.701253	31.832556	62.188106	8.195630	-5.234569
6.479167	8.354618	-0.104741	159.541427	0.200555	0.861872	0.772628	9.834729	4.242301	-1.347587	13.548414	0.236464	21.939806	18.251059	0.000000	10.909909	-2.879823	-4.611293	11.083304	0.193440	26.463021	15.135742	0.000000	-0.046473	1.054161	0.667023	-0.086305	1.402034	0.708712	-0.076350	2.563087	0.708712	-0.053114	2.563087	0.583645	-0.043155	2.149645	0.541956	-0.026555	1.632895	0.500267	-0.331951	11.924879	3.709780	0.000000	0.000000	11.673764	5.115464	2.299148	-16.697735	-33.924499	-4.696605	66.613765	85.960915	-0.275934	-7.561703	1.778981	0.507170	14.020352	36.560463	69.386067	1.358308	-2.054528
6.500000	8.462210	-0.294205	159.823081	0.201211	0.859604	0.771012	10.028743	4.234564	-1.498040	13.641900	0.238096	22.121594	18.441456	0.000000	11.145854	-2.911695	-4.598247	11.100866	0.193747	26.386506	15.484231	0.000000	-0.052661	1.014615	0.530687	-0.097798	1.349437	0.563855	-0.086518	2.466934	0.563855	-0.060187	2.466934	0.464351	-0.048901	2.069002	0.431183	-0.030091	1.571638	0.398015	-0.376156	11.477524	2.951520	0.000000	0.000000	12.312263	5.258701	3.284749	-14.995300	-33.259865	-3.716728	63.295912	81.798798	-0.683699	-9.025758	0.049884	-1.098158	3.173463	40.986363	75.819803	-5.919331	1.762167
6.520833	8.573269	-0.329619	160.182124	0.201676	0.857426	0.769896	10.133027	4.359060	-1.779941	13.649351	0.238226	22.389837	18.547347	0.000000	11.270168	-3.092690	-4.396060	11.013393	0.192220	26.370521	15.861829	0.000000	-0.057020	1.001232	0.395321	-0.105891	1.331638	0.420029	-0.093677	2.434395	0.420029	-0.065168	2.434395	0.345906	-0.052948	2.041712	0.321199	-0.032581	1.550908	0.296491	-0.407285	11.326135	2.198659	0.000000	0.000000	13.033692	5.293818	4.375116	-13.022241	-32.705942	-1.923836	59.085360	76.958076	-0.960460	-9.926137	-1.377199	-2.581638	-4.275349	44.878107	81.202692	-13.479981	5.984737
6.541667	8.665625	-0.197544	160.638000	0.201996	0.855589	0.769450	10.126916	4.601322	-2.222915	13.554788	0.236576	22.726040	18.598252	0.000000	11.305663	-3.422646	-4.434379	10.887034	0.190015	26.461889	16.816109	0.000000	-0.060579	1.016081	0.268820	-0.112502	1.351387	0.285621	-0.099526	2.470499	0.285621	-0.069236	2.470499	0.235218	-0.056254	2.071992	0.218416	-0.034615	1.573909	0.201615	-0.432712	11.494109	1.495096	0.000000	0.000000	13.792092	5.222288	5.449712	-10.883757	-32.346037	0.922680	54.243522	71.633858	-1.218037	-10.381764	-2.325548	-3.842624	-7.860482	48.051832	85.257696	-20.961068	9.898166
6.562500	8.721011	0.101913	161.160937	0.202139	0.854194	0.769649	9.984381	4.952780	-2.769540	13.341572	0.232854	23.071627	18.633566	0.000000	11.158392	-3.880875	-3.884448	10.580222	0.184660	26.386176	17.142986	0.000000	-0.063967	1.057434	0.166715	-0.118793	1.406387	0.177135	-0.105091	2.571044	0.177135	-0.073108	2.571044	0.145876	-0.059400	2.156318	0.135456	-0.036551	1.637965	0.125036	-0.456908	11.961900	0.927220	0.000000	0.000000	14.569020	5.059385	6.339246	-8.878438	-32.127331	4.099442	49.170840	66.932186	-1.442205	-10.197180	-2.668168	-4.795871	-7.456411	50.285887	87.670773	-27.637860	12.817210
6.583333	8.736100	0.542990	161.692119	0.202088	0.853194	0.770334	9.699447	5.398148	-3.304103	12.997600	0.226851	23.359729	18.661465	0.000000	10.763827	-4.424029	-2.176765	9.971653	0.174038	25.986219	16.007376	0.000000	-0.067221	1.118920	0.101120	-0.124835	1.488164	0.107440	-0.110437	2.720543	0.107440	-0.076826	2.720543	0.088480	-0.062421	2.281702	0.082160	-0.038410	1.733208	0.075840	-0.480150	12.657450	0.562401	0.000000	0.000000	15.357198	4.906484	6.970176	-7.204540	-31.998928	7.246124	44.215496	63.135703	-1.536945	-9.487347	-2.308828	-5.386428	-3.618138	51.347764	88.281341	-31.776600	15.120252
